<?xml version="1.0" encoding="UTF-8" standalone="no"?>
<!-- Uploaded to: SVG Repo, www.svgrepo.com, Generator: SVG Repo Mixer Tools -->

<svg
   fill="#000000"
   height="78.852173"
   width="342.6351"
   version="1.1"
   id="Capa_1"
   viewBox="0 0 191.24266 44.011537"
   xml:space="preserve"
   sodipodi:docname="logo-text.svg"
   inkscape:version="1.3 (0e150ed6c4, 2023-07-21)"
   xmlns:inkscape="http://www.inkscape.org/namespaces/inkscape"
   xmlns:sodipodi="http://sodipodi.sourceforge.net/DTD/sodipodi-0.dtd"
   xmlns="http://www.w3.org/2000/svg"
   xmlns:svg="http://www.w3.org/2000/svg"><defs
   id="defs13" /><sodipodi:namedview
   id="namedview13"
   pagecolor="#ffffff"
   bordercolor="#000000"
   borderopacity="0.25"
   inkscape:showpageshadow="2"
   inkscape:pageopacity="0.0"
   inkscape:pagecheckerboard="0"
   inkscape:deskcolor="#d1d1d1"
   inkscape:zoom="1.4513367"
   inkscape:cx="31.35041"
   inkscape:cy="78.203771"
   inkscape:window-width="1920"
   inkscape:window-height="1017"
   inkscape:window-x="1912"
   inkscape:window-y="32"
   inkscape:window-maximized="1"
   inkscape:current-layer="Capa_1" />&#10;<g
   id="g13"
   inkscape:label="spiral"
   transform="matrix(0.14588429,0,0,0.14588429,-42.484497,-4.7958289)"
   style="display:inline;stroke-width:0.99969;stroke-dasharray:none">&#10;	<path
   d="m 442.06451,32.874197 c -83.175,0 -150.844,67.668003 -150.844,150.844003 0,83.176 67.668,150.844 150.844,150.844 83.176,0 150.844,-67.668 150.844,-150.844 0,-83.176 -67.669,-150.844003 -150.844,-150.844003 z m 120.696,156.857003 c -1.363,27.655 -13.112,53.884 -32.649,73.505 -0.075,0.076 -0.151,0.151 -0.226,0.227 -34,34 -89.32,33.999 -123.321,0 -26.03,-26.03 -26.03,-68.384 0,-94.414 19.656,-19.654 51.635,-19.653 71.289,0 14.554,14.554 14.554,38.234 0,52.788 -9.618,9.617 -24.775,10.403 -35.298,2.355 -4.045,-3.094 -7.897,-9.612 -8.091,-14.701 -0.193,-5.059 1.629,-9.855 5.09,-13.483 5.416,-5.676 6.274,-14.498 1.24,-20.516 -5.734,-6.857 -15.963,-7.195 -22.142,-1.016 -9.159,9.158 -14.203,21.335 -14.203,34.287 0,12.952 5.044,25.128 14.203,34.287 22.172,22.17 58.245,22.169 80.414,0 26.251,-26.251 26.25,-68.964 0,-95.214 -31.351,-31.35 -82.364,-31.351 -113.714,0 -37.727,37.727 -37.727,99.113 0,136.839 4.524,4.523 9.332,8.592 14.362,12.22 -46.93,-17.619 -80.09,-63.628 -78.433,-117.003 1.993,-64.217 54.719,-116.053003 118.96,-117.005003 67.465,-1 122.668,53.590003 122.668,120.830003 -10e-4,2.017 -0.05,4.022 -0.149,6.014 z"
   id="path1"
   inkscape:label="path1"
   style="mix-blend-mode:normal;fill:#000000;fill-opacity:1;stroke-width:0.998585;stroke-dasharray:none" />&#10;	&#10;	&#10;	&#10;	&#10;	&#10;	&#10;	&#10;	&#10;	&#10;	&#10;	&#10;	&#10;</g>&#10;<text
   xml:space="preserve"
   style="font-style:normal;font-variant:normal;font-weight:normal;font-stretch:normal;font-size:45.7853px;font-family:Satoshi;-inkscape-font-specification:Satoshi;fill:#000000;stroke-width:1.07309"
   x="52.055328"
   y="37.778767"
   id="text13"
   inkscape:label="text"><tspan
     sodipodi:role="line"
     id="tspan13"
     style="font-style:normal;font-variant:normal;font-weight:bold;font-stretch:normal;font-size:45.7853px;font-family:Satoshi;-inkscape-font-specification:'Satoshi, Bold';font-variant-ligatures:normal;font-variant-caps:normal;font-variant-numeric:normal;font-variant-east-asian:normal;stroke-width:1.07309"
     x="52.055328"
     y="37.778767">Qoaba</tspan></text></svg>
